<svg width="240" height="70" viewBox="0 0 240 70" fill="none" xmlns="http://www.w3.org/2000/svg">
<g clip-path="url(#clip0_20_33)">
<rect x="0.53125" width="239.35" height="69.1358" rx="8" fill="#FFA343"/>
<path d="M76.358 41.204C75.236 41.204 74.2557 40.949 73.417 40.439C72.5783 39.929 71.9267 39.2207 71.462 38.314C70.9973 37.396 70.765 36.3307 70.765 35.118C70.765 33.894 71.003 32.8173 71.479 31.888C71.9663 30.9473 72.652 30.2163 73.536 29.695C74.4313 29.1623 75.491 28.896 76.715 28.896C78.109 28.896 79.265 29.2303 80.183 29.899C81.101 30.5677 81.696 31.4913 81.968 32.67H79.537C79.3557 32.1147 79.027 31.684 78.551 31.378C78.075 31.0607 77.463 30.902 76.715 30.902C75.525 30.902 74.607 31.2817 73.961 32.041C73.315 32.789 72.992 33.8203 72.992 35.135C72.992 36.4497 73.3093 37.4697 73.944 38.195C74.59 38.909 75.4627 39.266 76.562 39.266C77.6387 39.266 78.449 38.977 78.993 38.399C79.5483 37.8097 79.8827 37.039 79.996 36.087H76.987V34.455H82.189V41H80.183L80.013 39.436C79.6277 40.0027 79.146 40.439 78.568 40.745C77.99 41.051 77.2533 41.204 76.358 41.204ZM88.3504 41.204C87.5004 41.204 86.7468 41.0227 86.0894 40.66C85.4321 40.2973 84.9164 39.7873 84.5424 39.13C84.1684 38.4727 83.9814 37.7133 83.9814 36.852C83.9814 35.9793 84.1628 35.203 84.5254 34.523C84.8994 33.843 85.4094 33.316 86.0554 32.942C86.7128 32.5567 87.4834 32.364 88.3674 32.364C89.1948 32.364 89.9258 32.5453 90.5604 32.908C91.1951 33.2707 91.6881 33.7693 92.0394 34.404C92.4021 35.0273 92.5834 35.7243 92.5834 36.495C92.5834 36.6197 92.5778 36.75 92.5664 36.886C92.5664 37.022 92.5608 37.1637 92.5494 37.311H86.1404C86.1858 37.9683 86.4124 38.484 86.8204 38.858C87.2398 39.232 87.7441 39.419 88.3334 39.419C88.7754 39.419 89.1438 39.3227 89.4384 39.13C89.7444 38.926 89.9711 38.6653 90.1184 38.348H92.3284C92.1698 38.8807 91.9034 39.368 91.5294 39.81C91.1668 40.2407 90.7134 40.5807 90.1694 40.83C89.6368 41.0793 89.0304 41.204 88.3504 41.204ZM88.3674 34.132C87.8348 34.132 87.3644 34.285 86.9564 34.591C86.5484 34.8857 86.2878 35.339 86.1744 35.951H90.3734C90.3394 35.3957 90.1354 34.9537 89.7614 34.625C89.3874 34.2963 88.9228 34.132 88.3674 34.132ZM98.0212 41C97.1372 41 96.4288 40.7847 95.8962 40.354C95.3635 39.9233 95.0972 39.1583 95.0972 38.059V34.387H93.6522V32.568H95.0972L95.3522 30.307H97.2732V32.568H99.5512V34.387H97.2732V38.076C97.2732 38.484 97.3582 38.7673 97.5282 38.926C97.7095 39.0733 98.0155 39.147 98.4462 39.147H99.5002V41H98.0212ZM108.955 41.204C108.207 41.204 107.55 41.085 106.983 40.847C106.417 40.5977 105.963 40.2577 105.623 39.827C105.283 39.3963 105.079 38.8977 105.011 38.331H107.204C107.272 38.6597 107.454 38.943 107.748 39.181C108.054 39.4077 108.445 39.521 108.921 39.521C109.397 39.521 109.743 39.4247 109.958 39.232C110.185 39.0393 110.298 38.8183 110.298 38.569C110.298 38.2063 110.14 37.9627 109.822 37.838C109.505 37.702 109.063 37.5717 108.496 37.447C108.134 37.3677 107.765 37.2713 107.391 37.158C107.017 37.0447 106.672 36.903 106.354 36.733C106.048 36.5517 105.799 36.325 105.606 36.053C105.414 35.7697 105.317 35.424 105.317 35.016C105.317 34.268 105.612 33.639 106.201 33.129C106.802 32.619 107.641 32.364 108.717 32.364C109.715 32.364 110.508 32.5963 111.097 33.061C111.698 33.5257 112.055 34.166 112.168 34.982H110.111C109.987 34.3587 109.516 34.047 108.7 34.047C108.292 34.047 107.975 34.1263 107.748 34.285C107.533 34.4437 107.425 34.642 107.425 34.88C107.425 35.1293 107.59 35.3277 107.918 35.475C108.247 35.6223 108.683 35.7583 109.227 35.883C109.817 36.019 110.355 36.172 110.842 36.342C111.341 36.5007 111.738 36.7443 112.032 37.073C112.327 37.3903 112.474 37.8493 112.474 38.45C112.486 38.9713 112.35 39.4417 112.066 39.861C111.783 40.2803 111.375 40.609 110.842 40.847C110.31 41.085 109.681 41.204 108.955 41.204ZM117.893 41C117.009 41 116.301 40.7847 115.768 40.354C115.236 39.9233 114.969 39.1583 114.969 38.059V34.387H113.524V32.568H114.969L115.224 30.307H117.145V32.568H119.423V34.387H117.145V38.076C117.145 38.484 117.23 38.7673 117.4 38.926C117.582 39.0733 117.888 39.147 118.318 39.147H119.372V41H117.893ZM124.199 41.204C123.473 41.204 122.878 41.0907 122.414 40.864C121.949 40.626 121.603 40.3143 121.377 39.929C121.15 39.5437 121.037 39.1187 121.037 38.654C121.037 37.872 121.343 37.2373 121.955 36.75C122.567 36.2627 123.485 36.019 124.709 36.019H126.851V35.815C126.851 35.237 126.686 34.812 126.358 34.54C126.029 34.268 125.621 34.132 125.134 34.132C124.692 34.132 124.306 34.2397 123.978 34.455C123.649 34.659 123.445 34.965 123.366 35.373H121.241C121.297 34.761 121.501 34.2283 121.853 33.775C122.215 33.3217 122.68 32.976 123.247 32.738C123.813 32.4887 124.448 32.364 125.151 32.364C126.352 32.364 127.298 32.6643 127.99 33.265C128.681 33.8657 129.027 34.7157 129.027 35.815V41H127.174L126.97 39.64C126.72 40.0933 126.369 40.4673 125.916 40.762C125.474 41.0567 124.901 41.204 124.199 41.204ZM124.692 39.504C125.315 39.504 125.797 39.3 126.137 38.892C126.488 38.484 126.709 37.9797 126.8 37.379H124.947C124.369 37.379 123.955 37.4867 123.706 37.702C123.456 37.906 123.332 38.161 123.332 38.467C123.332 38.7957 123.456 39.0507 123.706 39.232C123.955 39.4133 124.284 39.504 124.692 39.504ZM131.103 41V32.568H133.041L133.245 34.149C133.551 33.605 133.965 33.1743 134.486 32.857C135.019 32.5283 135.642 32.364 136.356 32.364V34.659H135.744C135.268 34.659 134.843 34.7327 134.469 34.88C134.095 35.0273 133.8 35.2823 133.585 35.645C133.381 36.0077 133.279 36.512 133.279 37.158V41H131.103ZM141.6 41C140.716 41 140.008 40.7847 139.475 40.354C138.943 39.9233 138.676 39.1583 138.676 38.059V34.387H137.231V32.568H138.676L138.931 30.307H140.852V32.568H143.13V34.387H140.852V38.076C140.852 38.484 140.937 38.7673 141.107 38.926C141.289 39.0733 141.595 39.147 142.025 39.147H143.079V41H141.6ZM148.88 41.204C148.03 41.204 147.276 41.0227 146.619 40.66C145.961 40.2973 145.446 39.7873 145.072 39.13C144.698 38.4727 144.511 37.7133 144.511 36.852C144.511 35.9793 144.692 35.203 145.055 34.523C145.429 33.843 145.939 33.316 146.585 32.942C147.242 32.5567 148.013 32.364 148.897 32.364C149.724 32.364 150.455 32.5453 151.09 32.908C151.724 33.2707 152.217 33.7693 152.569 34.404C152.931 35.0273 153.113 35.7243 153.113 36.495C153.113 36.6197 153.107 36.75 153.096 36.886C153.096 37.022 153.09 37.1637 153.079 37.311H146.67C146.715 37.9683 146.942 38.484 147.35 38.858C147.769 39.232 148.273 39.419 148.863 39.419C149.305 39.419 149.673 39.3227 149.968 39.13C150.274 38.926 150.5 38.6653 150.648 38.348H152.858C152.699 38.8807 152.433 39.368 152.059 39.81C151.696 40.2407 151.243 40.5807 150.699 40.83C150.166 41.0793 149.56 41.204 148.88 41.204ZM148.897 34.132C148.364 34.132 147.894 34.285 147.486 34.591C147.078 34.8857 146.817 35.339 146.704 35.951H150.903C150.869 35.3957 150.665 34.9537 150.291 34.625C149.917 34.2963 149.452 34.132 148.897 34.132ZM158.819 41.204C158.026 41.204 157.317 41.0113 156.694 40.626C156.071 40.2407 155.578 39.7137 155.215 39.045C154.852 38.3763 154.671 37.617 154.671 36.767C154.671 35.917 154.852 35.1633 155.215 34.506C155.578 33.8373 156.071 33.316 156.694 32.942C157.317 32.5567 158.026 32.364 158.819 32.364C159.454 32.364 160.009 32.483 160.485 32.721C160.961 32.959 161.346 33.2933 161.641 33.724V28.76H163.817V41H161.879L161.641 39.793C161.369 40.167 161.006 40.4957 160.553 40.779C160.111 41.0623 159.533 41.204 158.819 41.204ZM159.278 39.3C159.981 39.3 160.553 39.0677 160.995 38.603C161.448 38.127 161.675 37.5207 161.675 36.784C161.675 36.0473 161.448 35.4467 160.995 34.982C160.553 34.506 159.981 34.268 159.278 34.268C158.587 34.268 158.014 34.5003 157.561 34.965C157.108 35.4297 156.881 36.0303 156.881 36.767C156.881 37.5037 157.108 38.11 157.561 38.586C158.014 39.062 158.587 39.3 159.278 39.3Z" fill="black"/>
</g>
<defs>
<clipPath id="clip0_20_33">
<rect width="239.35" height="69.1358" fill="white" transform="translate(0.57959)"/>
</clipPath>
</defs>
</svg>
