<svg width="128" height="19" viewBox="0 0 128 19" fill="none" xmlns="http://www.w3.org/2000/svg">
<path d="M7.39062 8.98926C7.75391 8.98926 8.05566 9.01562 8.2959 9.06836L8.09375 11.582C7.87695 11.5234 7.61328 11.4941 7.30273 11.4941C6.44727 11.4941 5.7793 11.7139 5.29883 12.1533C4.82422 12.5928 4.58691 13.208 4.58691 13.999V19H1.90625V9.17383H3.93652L4.33203 10.8262H4.46387C4.76855 10.2754 5.17871 9.83301 5.69434 9.49902C6.21582 9.15918 6.78125 8.98926 7.39062 8.98926ZM14.1494 10.8965C13.5811 10.8965 13.1357 11.0781 12.8135 11.4414C12.4912 11.7988 12.3066 12.3086 12.2598 12.9707H16.0215C16.0098 12.3086 15.8369 11.7988 15.5029 11.4414C15.1689 11.0781 14.7178 10.8965 14.1494 10.8965ZM14.5273 19.1758C12.9453 19.1758 11.709 18.7393 10.8184 17.8662C9.92773 16.9932 9.48242 15.7568 9.48242 14.1572C9.48242 12.5107 9.89258 11.2393 10.7129 10.3428C11.5391 9.44043 12.6787 8.98926 14.1318 8.98926C15.5205 8.98926 16.6016 9.38477 17.375 10.1758C18.1484 10.9668 18.5352 12.0596 18.5352 13.4541V14.7549H12.1982C12.2275 15.5166 12.4531 16.1113 12.875 16.5391C13.2969 16.9668 13.8887 17.1807 14.6504 17.1807C15.2422 17.1807 15.8018 17.1191 16.3291 16.9961C16.8564 16.873 17.4072 16.6768 17.9814 16.4072V18.4814C17.5127 18.7158 17.0117 18.8887 16.4785 19C15.9453 19.1172 15.2949 19.1758 14.5273 19.1758ZM26.9551 19L26.4365 17.6641H26.3662C25.915 18.2324 25.4492 18.6279 24.9688 18.8506C24.4941 19.0674 23.873 19.1758 23.1055 19.1758C22.1621 19.1758 21.418 18.9062 20.873 18.3672C20.334 17.8281 20.0645 17.0605 20.0645 16.0645C20.0645 15.0215 20.4277 14.2539 21.1543 13.7617C21.8867 13.2637 22.9883 12.9883 24.459 12.9355L26.1641 12.8828V12.4521C26.1641 11.4561 25.6543 10.958 24.6348 10.958C23.8496 10.958 22.9268 11.1953 21.8662 11.6699L20.9785 9.85938C22.1094 9.26758 23.3633 8.97168 24.7402 8.97168C26.0586 8.97168 27.0693 9.25879 27.7725 9.83301C28.4756 10.4072 28.8271 11.2803 28.8271 12.4521V19H26.9551ZM26.1641 14.4473L25.127 14.4824C24.3477 14.5059 23.7676 14.6465 23.3867 14.9043C23.0059 15.1621 22.8154 15.5547 22.8154 16.082C22.8154 16.8379 23.249 17.2158 24.1162 17.2158C24.7373 17.2158 25.2324 17.0371 25.6016 16.6797C25.9766 16.3223 26.1641 15.8477 26.1641 15.2559V14.4473ZM34.707 19.1758C33.5527 19.1758 32.6445 18.7275 31.9824 17.8311C31.3262 16.9346 30.998 15.6924 30.998 14.1045C30.998 12.4932 31.332 11.2393 32 10.3428C32.6738 9.44043 33.5996 8.98926 34.7773 8.98926C36.0137 8.98926 36.957 9.46973 37.6074 10.4307H37.6953C37.5605 9.69824 37.4932 9.04492 37.4932 8.4707V5.32422H40.1826V19H38.126L37.6074 17.7256H37.4932C36.8838 18.6924 35.9551 19.1758 34.707 19.1758ZM35.6475 17.04C36.333 17.04 36.834 16.8408 37.1504 16.4424C37.4727 16.0439 37.6484 15.3672 37.6777 14.4121V14.1221C37.6777 13.0674 37.5137 12.3115 37.1855 11.8545C36.8633 11.3975 36.3359 11.1689 35.6035 11.1689C35.0059 11.1689 34.54 11.4238 34.2061 11.9336C33.8779 12.4375 33.7139 13.1729 33.7139 14.1396C33.7139 15.1064 33.8809 15.833 34.2148 16.3193C34.5488 16.7998 35.0264 17.04 35.6475 17.04ZM56.46 19H53.7793V13.2607C53.7793 12.5518 53.6592 12.0215 53.4189 11.6699C53.1846 11.3125 52.8125 11.1338 52.3027 11.1338C51.6172 11.1338 51.1191 11.3857 50.8086 11.8896C50.498 12.3936 50.3428 13.2227 50.3428 14.377V19H47.6621V9.17383H49.71L50.0703 10.4307H50.2197C50.4834 9.97949 50.8643 9.62793 51.3623 9.37598C51.8604 9.11816 52.4316 8.98926 53.0762 8.98926C54.5469 8.98926 55.543 9.46973 56.0645 10.4307H56.3018C56.5654 9.97363 56.9521 9.61914 57.4619 9.36719C57.9775 9.11523 58.5576 8.98926 59.2021 8.98926C60.3154 8.98926 61.1562 9.27637 61.7246 9.85059C62.2988 10.4189 62.5859 11.333 62.5859 12.5928V19H59.8965V13.2607C59.8965 12.5518 59.7764 12.0215 59.5361 11.6699C59.3018 11.3125 58.9297 11.1338 58.4199 11.1338C57.7637 11.1338 57.2715 11.3682 56.9434 11.8369C56.6211 12.3057 56.46 13.0498 56.46 14.0693V19ZM67.4814 14.0693C67.4814 15.042 67.6396 15.7773 67.9561 16.2754C68.2783 16.7734 68.7998 17.0225 69.5205 17.0225C70.2354 17.0225 70.748 16.7764 71.0586 16.2842C71.375 15.7861 71.5332 15.0479 71.5332 14.0693C71.5332 13.0967 71.375 12.3672 71.0586 11.8809C70.7422 11.3945 70.2236 11.1514 69.5029 11.1514C68.7881 11.1514 68.2725 11.3945 67.9561 11.8809C67.6396 12.3613 67.4814 13.0908 67.4814 14.0693ZM74.2754 14.0693C74.2754 15.6689 73.8535 16.9199 73.0098 17.8223C72.166 18.7246 70.9912 19.1758 69.4854 19.1758C68.542 19.1758 67.71 18.9707 66.9893 18.5605C66.2686 18.1445 65.7148 17.5498 65.3281 16.7764C64.9414 16.0029 64.748 15.1006 64.748 14.0693C64.748 12.4639 65.167 11.2158 66.0049 10.3252C66.8428 9.43457 68.0205 8.98926 69.5381 8.98926C70.4814 8.98926 71.3135 9.19434 72.0342 9.60449C72.7549 10.0146 73.3086 10.6035 73.6953 11.3711C74.082 12.1387 74.2754 13.0381 74.2754 14.0693ZM81.9746 8.98926C82.3379 8.98926 82.6396 9.01562 82.8799 9.06836L82.6777 11.582C82.4609 11.5234 82.1973 11.4941 81.8867 11.4941C81.0312 11.4941 80.3633 11.7139 79.8828 12.1533C79.4082 12.5928 79.1709 13.208 79.1709 13.999V19H76.4902V9.17383H78.5205L78.916 10.8262H79.0479C79.3525 10.2754 79.7627 9.83301 80.2783 9.49902C80.7998 9.15918 81.3652 8.98926 81.9746 8.98926ZM88.7334 10.8965C88.165 10.8965 87.7197 11.0781 87.3975 11.4414C87.0752 11.7988 86.8906 12.3086 86.8438 12.9707H90.6055C90.5938 12.3086 90.4209 11.7988 90.0869 11.4414C89.7529 11.0781 89.3018 10.8965 88.7334 10.8965ZM89.1113 19.1758C87.5293 19.1758 86.293 18.7393 85.4023 17.8662C84.5117 16.9932 84.0664 15.7568 84.0664 14.1572C84.0664 12.5107 84.4766 11.2393 85.2969 10.3428C86.123 9.44043 87.2627 8.98926 88.7158 8.98926C90.1045 8.98926 91.1855 9.38477 91.959 10.1758C92.7324 10.9668 93.1191 12.0596 93.1191 13.4541V14.7549H86.7822C86.8115 15.5166 87.0371 16.1113 87.459 16.5391C87.8809 16.9668 88.4727 17.1807 89.2344 17.1807C89.8262 17.1807 90.3857 17.1191 90.9131 16.9961C91.4404 16.873 91.9912 16.6768 92.5654 16.4072V18.4814C92.0967 18.7158 91.5957 18.8887 91.0625 19C90.5293 19.1172 89.8789 19.1758 89.1113 19.1758Z" fill="#FBD784"/>
<path d="M119.5 3L118.09 4.41L123.67 10L103.5 10L103.5 12L123.67 12L118.08 17.58L119.5 19L127.5 11L119.5 3Z" fill="#FBD784"/>
</svg>
