<svg width="175" height="21" viewBox="0 0 175 21" fill="none" xmlns="http://www.w3.org/2000/svg">
<path d="M0.628 16V0.599999H5.6C6.80267 0.599999 7.78533 0.797999 8.548 1.194C9.31067 1.59 9.87533 2.13267 10.242 2.822C10.6087 3.51133 10.792 4.274 10.792 5.11C10.792 6.078 10.528 6.95067 10 7.728C9.48667 8.50533 8.68 9.05533 7.58 9.378L10.946 16H8.768L5.644 9.642H5.512H2.476V16H0.628ZM2.476 8.19H5.468C6.656 8.19 7.52133 7.904 8.064 7.332C8.60667 6.76 8.878 6.02667 8.878 5.132C8.878 4.22267 8.60667 3.504 8.064 2.976C7.536 2.43333 6.66333 2.162 5.446 2.162H2.476V8.19ZM17.499 16.264C16.4577 16.264 15.5337 16.0293 14.727 15.56C13.9203 15.076 13.2823 14.4087 12.813 13.558C12.3583 12.7073 12.131 11.7027 12.131 10.544C12.131 9.4 12.3583 8.40267 12.813 7.552C13.2677 6.68667 13.8983 6.01933 14.705 5.55C15.5263 5.066 16.4723 4.824 17.543 4.824C18.599 4.824 19.5083 5.066 20.271 5.55C21.0483 6.01933 21.6423 6.64267 22.053 7.42C22.4637 8.19733 22.669 9.03333 22.669 9.928C22.669 10.0893 22.6617 10.2507 22.647 10.412C22.647 10.5733 22.647 10.7567 22.647 10.962H13.957C14.001 11.798 14.1917 12.4947 14.529 13.052C14.881 13.5947 15.3137 14.0053 15.827 14.284C16.355 14.5627 16.9123 14.702 17.499 14.702C18.2617 14.702 18.8997 14.526 19.413 14.174C19.9263 13.822 20.3003 13.3453 20.535 12.744H22.361C22.0677 13.756 21.503 14.5993 20.667 15.274C19.8457 15.934 18.7897 16.264 17.499 16.264ZM17.499 6.386C16.619 6.386 15.8343 6.65733 15.145 7.2C14.4703 7.728 14.0817 8.50533 13.979 9.532H20.843C20.799 8.54933 20.4617 7.77933 19.831 7.222C19.2003 6.66467 18.423 6.386 17.499 6.386ZM28.4484 16.264C27.5391 16.264 26.7837 16.11 26.1824 15.802C25.5811 15.494 25.1337 15.0833 24.8404 14.57C24.5471 14.0567 24.4004 13.4993 24.4004 12.898C24.4004 11.7833 24.8257 10.9253 25.6764 10.324C26.5271 9.72267 27.6857 9.422 29.1524 9.422H32.1004V9.29C32.1004 8.33667 31.8511 7.618 31.3524 7.134C30.8537 6.63533 30.1864 6.386 29.3504 6.386C28.6317 6.386 28.0084 6.56933 27.4804 6.936C26.9671 7.288 26.6444 7.80867 26.5124 8.498H24.6204C24.6937 7.706 24.9577 7.03867 25.4124 6.496C25.8817 5.95333 26.4611 5.54267 27.1504 5.264C27.8397 4.97067 28.5731 4.824 29.3504 4.824C30.8757 4.824 32.0197 5.23467 32.7824 6.056C33.5597 6.86267 33.9484 7.94067 33.9484 9.29V16H32.2984L32.1884 14.042C31.8804 14.658 31.4257 15.186 30.8244 15.626C30.2377 16.0513 29.4457 16.264 28.4484 16.264ZM28.7344 14.702C29.4384 14.702 30.0397 14.5187 30.5384 14.152C31.0517 13.7853 31.4404 13.3087 31.7044 12.722C31.9684 12.1353 32.1004 11.5193 32.1004 10.874V10.852H29.3064C28.2211 10.852 27.4511 11.0427 26.9964 11.424C26.5564 11.7907 26.3364 12.2527 26.3364 12.81C26.3364 13.382 26.5417 13.844 26.9524 14.196C27.3777 14.5333 27.9717 14.702 28.7344 14.702ZM41.3707 16.264C40.2854 16.264 39.3321 16.0147 38.5107 15.516C37.7041 15.0173 37.0734 14.3353 36.6187 13.47C36.1787 12.6047 35.9587 11.622 35.9587 10.522C35.9587 9.422 36.1861 8.44667 36.6407 7.596C37.0954 6.73067 37.7261 6.056 38.5327 5.572C39.3394 5.07333 40.2927 4.824 41.3927 4.824C42.2874 4.824 43.0794 5.00733 43.7687 5.374C44.4581 5.74067 44.9934 6.254 45.3747 6.914V0.159999H47.2227V16H45.5507L45.3747 14.196C45.0227 14.724 44.5167 15.2007 43.8567 15.626C43.1967 16.0513 42.3681 16.264 41.3707 16.264ZM41.5687 14.658C42.3021 14.658 42.9474 14.4893 43.5047 14.152C44.0767 13.8 44.5167 13.316 44.8247 12.7C45.1474 12.084 45.3087 11.3653 45.3087 10.544C45.3087 9.72267 45.1474 9.004 44.8247 8.388C44.5167 7.772 44.0767 7.29533 43.5047 6.958C42.9474 6.606 42.3021 6.43 41.5687 6.43C40.8501 6.43 40.2047 6.606 39.6327 6.958C39.0754 7.29533 38.6354 7.772 38.3127 8.388C38.0047 9.004 37.8507 9.72267 37.8507 10.544C37.8507 11.3653 38.0047 12.084 38.3127 12.7C38.6354 13.316 39.0754 13.8 39.6327 14.152C40.2047 14.4893 40.8501 14.658 41.5687 14.658ZM51.1232 20.84L53.8292 14.944H53.1912L48.8572 5.088H50.8592L54.4672 13.58L58.2952 5.088H60.2092L53.0592 20.84H51.1232ZM71.6941 16C70.6967 16 69.9121 15.758 69.3401 15.274C68.7681 14.79 68.4821 13.9173 68.4821 12.656V6.65H66.5901V5.088H68.4821L68.7241 2.47H70.3301V5.088H73.5421V6.65H70.3301V12.656C70.3301 13.3453 70.4694 13.8147 70.7481 14.064C71.0267 14.2987 71.5181 14.416 72.2221 14.416H73.3661V16H71.6941ZM80.2611 16.264C79.2344 16.264 78.3104 16.0293 77.4891 15.56C76.6678 15.0907 76.0151 14.4307 75.5311 13.58C75.0618 12.7147 74.8271 11.7027 74.8271 10.544C74.8271 9.38533 75.0691 8.38067 75.5531 7.53C76.0371 6.66467 76.6898 5.99733 77.5111 5.528C78.3471 5.05867 79.2784 4.824 80.3051 4.824C81.3318 4.824 82.2558 5.05867 83.0771 5.528C83.8984 5.99733 84.5438 6.66467 85.0131 7.53C85.4971 8.38067 85.7391 9.38533 85.7391 10.544C85.7391 11.7027 85.4971 12.7147 85.0131 13.58C84.5291 14.4307 83.8691 15.0907 83.0331 15.56C82.2118 16.0293 81.2878 16.264 80.2611 16.264ZM80.2611 14.68C80.8918 14.68 81.4784 14.526 82.0211 14.218C82.5638 13.91 83.0038 13.448 83.3411 12.832C83.6784 12.216 83.8471 11.4533 83.8471 10.544C83.8471 9.63467 83.6784 8.872 83.3411 8.256C83.0184 7.64 82.5858 7.178 82.0431 6.87C81.5004 6.562 80.9211 6.408 80.3051 6.408C79.6744 6.408 79.0878 6.562 78.5451 6.87C78.0024 7.178 77.5624 7.64 77.2251 8.256C76.8878 8.872 76.7191 9.63467 76.7191 10.544C76.7191 11.4533 76.8878 12.216 77.2251 12.832C77.5624 13.448 77.9951 13.91 78.5231 14.218C79.0658 14.526 79.6451 14.68 80.2611 14.68ZM98.4369 16.264C97.3956 16.264 96.4716 16.0293 95.6649 15.56C94.8582 15.076 94.2202 14.4087 93.7509 13.558C93.2962 12.7073 93.0689 11.7027 93.0689 10.544C93.0689 9.4 93.2962 8.40267 93.7509 7.552C94.2056 6.68667 94.8362 6.01933 95.6429 5.55C96.4642 5.066 97.4102 4.824 98.4809 4.824C99.5369 4.824 100.446 5.066 101.209 5.55C101.986 6.01933 102.58 6.64267 102.991 7.42C103.402 8.19733 103.607 9.03333 103.607 9.928C103.607 10.0893 103.6 10.2507 103.585 10.412C103.585 10.5733 103.585 10.7567 103.585 10.962H94.8949C94.9389 11.798 95.1296 12.4947 95.4669 13.052C95.8189 13.5947 96.2516 14.0053 96.7649 14.284C97.2929 14.5627 97.8502 14.702 98.4369 14.702C99.1996 14.702 99.8376 14.526 100.351 14.174C100.864 13.822 101.238 13.3453 101.473 12.744H103.299C103.006 13.756 102.441 14.5993 101.605 15.274C100.784 15.934 99.7276 16.264 98.4369 16.264ZM98.4369 6.386C97.5569 6.386 96.7722 6.65733 96.0829 7.2C95.4082 7.728 95.0196 8.50533 94.9169 9.532H101.781C101.737 8.54933 101.4 7.77933 100.769 7.222C100.138 6.66467 99.3609 6.386 98.4369 6.386ZM104.141 16L107.925 10.544L104.141 5.088H106.143L109.201 9.598L112.281 5.088H114.261L110.477 10.544L114.261 16H112.281L109.201 11.49L106.143 16H104.141ZM115.898 20.84V5.088H117.57L117.746 6.892C118.098 6.364 118.596 5.88733 119.242 5.462C119.902 5.03667 120.738 4.824 121.75 4.824C122.835 4.824 123.781 5.07333 124.588 5.572C125.394 6.07067 126.018 6.75267 126.458 7.618C126.912 8.48333 127.14 9.466 127.14 10.566C127.14 11.666 126.912 12.6487 126.458 13.514C126.018 14.3647 125.387 15.0393 124.566 15.538C123.759 16.022 122.813 16.264 121.728 16.264C120.833 16.264 120.034 16.0807 119.33 15.714C118.64 15.3473 118.112 14.834 117.746 14.174V20.84H115.898ZM121.53 14.658C122.263 14.658 122.908 14.4893 123.466 14.152C124.023 13.8 124.463 13.316 124.786 12.7C125.108 12.084 125.27 11.3653 125.27 10.544C125.27 9.72267 125.108 9.004 124.786 8.388C124.463 7.772 124.023 7.29533 123.466 6.958C122.908 6.606 122.263 6.43 121.53 6.43C120.796 6.43 120.151 6.606 119.594 6.958C119.036 7.29533 118.596 7.772 118.274 8.388C117.951 9.004 117.79 9.72267 117.79 10.544C117.79 11.3653 117.951 12.084 118.274 12.7C118.596 13.316 119.036 13.8 119.594 14.152C120.151 14.4893 120.796 14.658 121.53 14.658ZM129.412 16V0.159999H131.26V16H129.412ZM138.961 16.264C137.934 16.264 137.01 16.0293 136.189 15.56C135.368 15.0907 134.715 14.4307 134.231 13.58C133.762 12.7147 133.527 11.7027 133.527 10.544C133.527 9.38533 133.769 8.38067 134.253 7.53C134.737 6.66467 135.39 5.99733 136.211 5.528C137.047 5.05867 137.978 4.824 139.005 4.824C140.032 4.824 140.956 5.05867 141.777 5.528C142.598 5.99733 143.244 6.66467 143.713 7.53C144.197 8.38067 144.439 9.38533 144.439 10.544C144.439 11.7027 144.197 12.7147 143.713 13.58C143.229 14.4307 142.569 15.0907 141.733 15.56C140.912 16.0293 139.988 16.264 138.961 16.264ZM138.961 14.68C139.592 14.68 140.178 14.526 140.721 14.218C141.264 13.91 141.704 13.448 142.041 12.832C142.378 12.216 142.547 11.4533 142.547 10.544C142.547 9.63467 142.378 8.872 142.041 8.256C141.718 7.64 141.286 7.178 140.743 6.87C140.2 6.562 139.621 6.408 139.005 6.408C138.374 6.408 137.788 6.562 137.245 6.87C136.702 7.178 136.262 7.64 135.925 8.256C135.588 8.872 135.419 9.63467 135.419 10.544C135.419 11.4533 135.588 12.216 135.925 12.832C136.262 13.448 136.695 13.91 137.223 14.218C137.766 14.526 138.345 14.68 138.961 14.68ZM146.709 16V5.088H148.381L148.535 7.178C148.872 6.45933 149.385 5.88733 150.075 5.462C150.764 5.03667 151.615 4.824 152.627 4.824V6.76H152.121C151.475 6.76 150.881 6.87733 150.339 7.112C149.796 7.332 149.363 7.71333 149.041 8.256C148.718 8.79867 148.557 9.54667 148.557 10.5V16H146.709ZM158.899 16.264C157.857 16.264 156.933 16.0293 156.127 15.56C155.32 15.076 154.682 14.4087 154.213 13.558C153.758 12.7073 153.531 11.7027 153.531 10.544C153.531 9.4 153.758 8.40267 154.213 7.552C154.667 6.68667 155.298 6.01933 156.105 5.55C156.926 5.066 157.872 4.824 158.943 4.824C159.999 4.824 160.908 5.066 161.671 5.55C162.448 6.01933 163.042 6.64267 163.453 7.42C163.863 8.19733 164.069 9.03333 164.069 9.928C164.069 10.0893 164.061 10.2507 164.047 10.412C164.047 10.5733 164.047 10.7567 164.047 10.962H155.357C155.401 11.798 155.591 12.4947 155.929 13.052C156.281 13.5947 156.713 14.0053 157.227 14.284C157.755 14.5627 158.312 14.702 158.899 14.702C159.661 14.702 160.299 14.526 160.813 14.174C161.326 13.822 161.7 13.3453 161.935 12.744H163.761C163.467 13.756 162.903 14.5993 162.067 15.274C161.245 15.934 160.189 16.264 158.899 16.264ZM158.899 6.386C158.019 6.386 157.234 6.65733 156.545 7.2C155.87 7.728 155.481 8.50533 155.379 9.532H162.243C162.199 8.54933 161.861 7.77933 161.231 7.222C160.6 6.66467 159.823 6.386 158.899 6.386ZM167.592 11.688L167.504 8.146H168.186C169.008 8.146 169.77 8.06533 170.474 7.904C171.193 7.74267 171.772 7.42733 172.212 6.958C172.652 6.48867 172.872 5.78467 172.872 4.846C172.872 3.93667 172.586 3.218 172.014 2.69C171.457 2.162 170.716 1.898 169.792 1.898C168.854 1.898 168.113 2.15467 167.57 2.668C167.028 3.18133 166.756 3.87067 166.756 4.736H164.996C164.996 3.856 165.194 3.086 165.59 2.426C166.001 1.766 166.566 1.25267 167.284 0.885999C168.003 0.519333 168.839 0.336 169.792 0.336C170.746 0.336 171.589 0.519333 172.322 0.885999C173.056 1.25267 173.628 1.77333 174.038 2.448C174.449 3.12267 174.654 3.922 174.654 4.846C174.654 5.93133 174.42 6.81133 173.95 7.486C173.496 8.16067 172.858 8.652 172.036 8.96C171.23 9.268 170.306 9.422 169.264 9.422L169.198 11.688H167.592ZM168.384 16.11C168.018 16.11 167.71 15.9927 167.46 15.758C167.226 15.5087 167.108 15.208 167.108 14.856C167.108 14.504 167.226 14.2107 167.46 13.976C167.71 13.7267 168.018 13.602 168.384 13.602C168.751 13.602 169.052 13.7267 169.286 13.976C169.521 14.2107 169.638 14.504 169.638 14.856C169.638 15.208 169.521 15.5087 169.286 15.758C169.052 15.9927 168.751 16.11 168.384 16.11Z" fill="white"/>
</svg>
