<svg width="126" height="26" viewBox="0 0 126 26" fill="none" xmlns="http://www.w3.org/2000/svg">
<path d="M9.10547 16.5107C9.10547 17.6533 8.69238 18.5498 7.86621 19.2002C7.04004 19.8506 5.90039 20.1758 4.44727 20.1758C2.99414 20.1758 1.80469 19.9502 0.878906 19.499V17.5127C1.46484 17.7881 2.08594 18.0049 2.74219 18.1631C3.4043 18.3213 4.01953 18.4004 4.58789 18.4004C5.41992 18.4004 6.03223 18.2422 6.4248 17.9258C6.82324 17.6094 7.02246 17.1846 7.02246 16.6514C7.02246 16.1709 6.84082 15.7637 6.47754 15.4297C6.11426 15.0957 5.36426 14.7002 4.22754 14.2432C3.05566 13.7686 2.22949 13.2266 1.74902 12.6172C1.26855 12.0078 1.02832 11.2754 1.02832 10.4199C1.02832 9.34766 1.40918 8.50391 2.1709 7.88867C2.93262 7.27344 3.95508 6.96582 5.23828 6.96582C6.46875 6.96582 7.69336 7.23535 8.91211 7.77441L8.24414 9.48828C7.10156 9.00781 6.08203 8.76758 5.18555 8.76758C4.50586 8.76758 3.99023 8.91699 3.63867 9.21582C3.28711 9.50879 3.11133 9.89844 3.11133 10.3848C3.11133 10.7188 3.18164 11.0059 3.32227 11.2461C3.46289 11.4805 3.69434 11.7031 4.0166 11.9141C4.33887 12.125 4.91895 12.4033 5.75684 12.749C6.7002 13.1416 7.3916 13.5078 7.83105 13.8477C8.27051 14.1875 8.59277 14.5713 8.79785 14.999C9.00293 15.4268 9.10547 15.9307 9.10547 16.5107ZM15.293 20.1758C13.8223 20.1758 12.7031 19.748 11.9355 18.8926C11.1738 18.0312 10.793 16.7979 10.793 15.1924C10.793 13.5576 11.1914 12.3008 11.9883 11.4219C12.791 10.543 13.9482 10.1035 15.46 10.1035C16.4854 10.1035 17.4082 10.2939 18.2285 10.6748L17.6045 12.3359C16.7314 11.9961 16.0107 11.8262 15.4424 11.8262C13.7607 11.8262 12.9199 12.9424 12.9199 15.1748C12.9199 16.2646 13.1279 17.085 13.5439 17.6357C13.9658 18.1807 14.5811 18.4531 15.3896 18.4531C16.3096 18.4531 17.1797 18.2246 18 17.7676V19.5693C17.6309 19.7861 17.2354 19.9414 16.8135 20.0352C16.3975 20.1289 15.8906 20.1758 15.293 20.1758ZM25.2158 10.1035C25.6318 10.1035 25.9746 10.1328 26.2441 10.1914L26.042 12.1162C25.749 12.0459 25.4443 12.0107 25.1279 12.0107C24.3018 12.0107 23.6309 12.2803 23.1152 12.8193C22.6055 13.3584 22.3506 14.0586 22.3506 14.9199V20H20.2852V10.2793H21.9023L22.1748 11.9932H22.2803C22.6025 11.4131 23.0215 10.9531 23.5371 10.6133C24.0586 10.2734 24.6182 10.1035 25.2158 10.1035ZM36.6768 15.1221C36.6768 16.71 36.2695 17.9492 35.4551 18.8398C34.6406 19.7305 33.5068 20.1758 32.0537 20.1758C31.1455 20.1758 30.3428 19.9707 29.6455 19.5605C28.9482 19.1504 28.4121 18.5615 28.0371 17.7939C27.6621 17.0264 27.4746 16.1357 27.4746 15.1221C27.4746 13.5459 27.8789 12.3154 28.6875 11.4307C29.4961 10.5459 30.6357 10.1035 32.1064 10.1035C33.5127 10.1035 34.626 10.5576 35.4463 11.4658C36.2666 12.3682 36.6768 13.5869 36.6768 15.1221ZM29.6016 15.1221C29.6016 17.3662 30.4307 18.4883 32.0889 18.4883C33.7295 18.4883 34.5498 17.3662 34.5498 15.1221C34.5498 12.9014 33.7236 11.791 32.0713 11.791C31.2041 11.791 30.5742 12.0781 30.1816 12.6523C29.7949 13.2266 29.6016 14.0498 29.6016 15.1221ZM41.124 20H39.0586V6.32422H41.124V20ZM46.1514 20H44.0859V6.32422H46.1514V20ZM57.0674 20.1758C55.8545 20.1758 54.9082 19.7363 54.2285 18.8574C53.5488 17.9785 53.209 16.7451 53.209 15.1572C53.209 13.5635 53.5518 12.3242 54.2373 11.4395C54.9287 10.5488 55.8838 10.1035 57.1025 10.1035C58.3799 10.1035 59.3525 10.5752 60.0205 11.5186H60.126C60.0264 10.8213 59.9766 10.2705 59.9766 9.86621V6.32422H62.0508V20H60.4336L60.0732 18.7256H59.9766C59.3145 19.6924 58.3447 20.1758 57.0674 20.1758ZM57.6211 18.5059C58.4707 18.5059 59.0889 18.2686 59.4756 17.7939C59.8623 17.3135 60.0615 16.5371 60.0732 15.4648V15.1748C60.0732 13.9502 59.874 13.0801 59.4756 12.5645C59.0771 12.0488 58.4531 11.791 57.6035 11.791C56.877 11.791 56.3174 12.0869 55.9248 12.6787C55.5322 13.2646 55.3359 14.1025 55.3359 15.1924C55.3359 16.2705 55.5264 17.0938 55.9072 17.6621C56.2881 18.2246 56.8594 18.5059 57.6211 18.5059ZM73.626 15.1221C73.626 16.71 73.2188 17.9492 72.4043 18.8398C71.5898 19.7305 70.4561 20.1758 69.0029 20.1758C68.0947 20.1758 67.292 19.9707 66.5947 19.5605C65.8975 19.1504 65.3613 18.5615 64.9863 17.7939C64.6113 17.0264 64.4238 16.1357 64.4238 15.1221C64.4238 13.5459 64.8281 12.3154 65.6367 11.4307C66.4453 10.5459 67.585 10.1035 69.0557 10.1035C70.4619 10.1035 71.5752 10.5576 72.3955 11.4658C73.2158 12.3682 73.626 13.5869 73.626 15.1221ZM66.5508 15.1221C66.5508 17.3662 67.3799 18.4883 69.0381 18.4883C70.6787 18.4883 71.499 17.3662 71.499 15.1221C71.499 12.9014 70.6729 11.791 69.0205 11.791C68.1533 11.791 67.5234 12.0781 67.1309 12.6523C66.7441 13.2266 66.5508 14.0498 66.5508 15.1221ZM83.9795 20L82.7227 15.4648C82.5703 14.9844 82.2949 13.8682 81.8965 12.1162H81.8174C81.4775 13.6982 81.208 14.8203 81.0088 15.4824L79.7168 20H77.4316L74.707 10.2793H76.8164L78.0557 15.0693C78.3369 16.2529 78.5361 17.2666 78.6533 18.1104H78.7061C78.7646 17.6826 78.8525 17.1934 78.9697 16.6426C79.0928 16.0859 79.1982 15.6699 79.2861 15.3945L80.7627 10.2793H83.0303L84.4629 15.3945C84.5508 15.6816 84.6592 16.1211 84.7881 16.7129C84.9229 17.3047 85.002 17.7646 85.0254 18.0928H85.0957C85.1836 17.3721 85.3887 16.3643 85.7109 15.0693L86.9678 10.2793H89.042L86.2998 20H83.9795ZM99.2725 20H97.1982V14.0234C97.1982 13.2734 97.0459 12.7139 96.7412 12.3447C96.4424 11.9756 95.9648 11.791 95.3086 11.791C94.4355 11.791 93.7969 12.0488 93.3926 12.5645C92.9883 13.0801 92.7861 13.9443 92.7861 15.1572V20H90.7207V10.2793H92.3379L92.6279 11.5537H92.7334C93.0264 11.0908 93.4424 10.7334 93.9814 10.4814C94.5205 10.2295 95.1182 10.1035 95.7744 10.1035C98.1064 10.1035 99.2725 11.29 99.2725 13.6631V20Z" fill="white"/>
<path d="M126 16L124.59 14.59L119 20.17V0H117V20.17L111.42 14.58L110 16L118 24L126 16Z" fill="white"/>
</svg>
