<svg width="88" height="23" viewBox="0 0 88 23" fill="none" xmlns="http://www.w3.org/2000/svg">
<g opacity="0.6">
<path d="M42.5166 14.771C42.5166 15.839 42.1292 16.6719 41.3545 17.2695C40.5798 17.8672 39.5283 18.166 38.2002 18.166C36.7614 18.166 35.6546 17.9806 34.8799 17.6099V16.2485C35.3779 16.4588 35.9202 16.6248 36.5068 16.7466C37.0934 16.8683 37.6745 16.9292 38.25 16.9292C39.1908 16.9292 39.8991 16.7521 40.375 16.3979C40.8509 16.0382 41.0889 15.5402 41.0889 14.9038C41.0889 14.4832 41.0031 14.1401 40.8315 13.8745C40.6655 13.6034 40.3833 13.3543 39.9849 13.1274C39.592 12.9006 38.9915 12.6432 38.1836 12.3555C37.0547 11.9515 36.2467 11.4728 35.7598 10.9194C35.2783 10.366 35.0376 9.64388 35.0376 8.75293C35.0376 7.81771 35.389 7.0734 36.0918 6.52002C36.7946 5.96663 37.7243 5.68994 38.8809 5.68994C40.0872 5.68994 41.1968 5.9113 42.2095 6.354L41.7695 7.58252C40.7679 7.16195 39.7939 6.95166 38.8477 6.95166C38.1006 6.95166 37.5168 7.11214 37.0962 7.43311C36.6756 7.75407 36.4653 8.19954 36.4653 8.76953C36.4653 9.1901 36.5428 9.53597 36.6978 9.80713C36.8527 10.0728 37.1128 10.319 37.478 10.5459C37.8488 10.7673 38.4132 11.0135 39.1714 11.2847C40.4442 11.7384 41.3185 12.2254 41.7944 12.7456C42.2759 13.2658 42.5166 13.9409 42.5166 14.771ZM48.6343 18.166C47.2896 18.166 46.2271 17.7565 45.4468 16.9375C44.672 16.1185 44.2847 14.9813 44.2847 13.5259C44.2847 12.0594 44.6444 10.8945 45.3638 10.0312C46.0887 9.16797 47.0599 8.73633 48.2773 8.73633C49.4173 8.73633 50.3193 9.11263 50.9834 9.86523C51.6475 10.6123 51.9795 11.6001 51.9795 12.8286V13.7002H45.7124C45.7401 14.7682 46.0085 15.5789 46.5176 16.1323C47.0322 16.6857 47.7544 16.9624 48.6841 16.9624C49.6636 16.9624 50.632 16.7576 51.5894 16.3481V17.5767C51.1024 17.7869 50.6403 17.9364 50.2031 18.0249C49.7715 18.119 49.2485 18.166 48.6343 18.166ZM48.2607 9.89014C47.5303 9.89014 46.9465 10.1281 46.5093 10.604C46.0776 11.0799 45.8231 11.7384 45.7456 12.5796H50.502C50.502 11.7108 50.3083 11.0467 49.9209 10.5874C49.5335 10.1226 48.9801 9.89014 48.2607 9.89014ZM59.9316 18L59.6577 16.7051H59.5913C59.1375 17.2751 58.6838 17.6624 58.23 17.8672C57.7817 18.0664 57.2201 18.166 56.5449 18.166C55.6429 18.166 54.9346 17.9336 54.4199 17.4688C53.9108 17.0039 53.6562 16.3426 53.6562 15.4849C53.6562 13.6476 55.1255 12.6847 58.064 12.5962L59.6079 12.5464V11.9819C59.6079 11.2681 59.453 10.7424 59.1431 10.4048C58.8387 10.0617 58.349 9.89014 57.6738 9.89014C56.9157 9.89014 56.0579 10.1226 55.1006 10.5874L54.6772 9.5332C55.1255 9.28971 55.6152 9.0988 56.1465 8.96045C56.6833 8.8221 57.2201 8.75293 57.7568 8.75293C58.8415 8.75293 59.6439 8.99365 60.1641 9.4751C60.6898 9.95654 60.9526 10.7285 60.9526 11.791V18H59.9316ZM56.8188 17.0288C57.6766 17.0288 58.349 16.7936 58.8359 16.3232C59.3285 15.8529 59.5747 15.1943 59.5747 14.3477V13.5259L58.1968 13.584C57.1011 13.6227 56.3097 13.7943 55.8228 14.0986C55.3413 14.3975 55.1006 14.8651 55.1006 15.5015C55.1006 15.9995 55.25 16.3786 55.5488 16.6387C55.8532 16.8988 56.2765 17.0288 56.8188 17.0288ZM67.9502 8.73633C68.3542 8.73633 68.7166 8.76953 69.0376 8.83594L68.8467 10.1143C68.4704 10.0312 68.1383 9.98975 67.8506 9.98975C67.1146 9.98975 66.4837 10.2886 65.958 10.8862C65.4378 11.4839 65.1777 12.2282 65.1777 13.1191V18H63.7998V8.90234H64.937L65.0947 10.5874H65.1611C65.4987 9.99528 65.9054 9.53874 66.3813 9.21777C66.8573 8.89681 67.3802 8.73633 67.9502 8.73633ZM74.375 18.166C73.0579 18.166 72.0369 17.762 71.312 16.9541C70.5926 16.1406 70.2329 14.9924 70.2329 13.5093C70.2329 11.9875 70.5981 10.8115 71.3286 9.98145C72.0646 9.15137 73.1105 8.73633 74.4663 8.73633C74.9035 8.73633 75.3407 8.78337 75.7778 8.87744C76.215 8.97152 76.5581 9.08219 76.8071 9.20947L76.3838 10.3799C76.0794 10.2581 75.7474 10.1585 75.3877 10.0811C75.028 9.99805 74.7098 9.95654 74.4331 9.95654C72.5848 9.95654 71.6606 11.1353 71.6606 13.4927C71.6606 14.6105 71.8848 15.4683 72.333 16.0659C72.7868 16.6636 73.4564 16.9624 74.3418 16.9624C75.0999 16.9624 75.8774 16.7992 76.6743 16.4727V17.6929C76.0656 18.0083 75.2992 18.166 74.375 18.166ZM85.0664 18V12.1147C85.0664 11.3732 84.8976 10.8198 84.5601 10.4546C84.2225 10.0894 83.694 9.90674 82.9746 9.90674C82.0173 9.90674 81.3172 10.1668 80.8745 10.687C80.4373 11.2072 80.2188 12.0594 80.2188 13.2437V18H78.8408V5.08398H80.2188V8.99365C80.2188 9.46403 80.1966 9.85417 80.1523 10.1641H80.2354C80.5065 9.72689 80.8911 9.38379 81.3892 9.13477C81.8927 8.88021 82.4655 8.75293 83.1074 8.75293C84.2197 8.75293 85.0526 9.01855 85.606 9.5498C86.1649 10.0755 86.4443 10.9139 86.4443 12.0649V18H85.0664Z" fill="white"/>
<path d="M15.564 18.3392L10.8015 13.5759C8.68288 15.0821 5.76352 14.7136 4.08555 12.7283C2.40758 10.7429 2.53079 7.80301 4.36899 5.96502C6.2067 4.12622 9.14693 4.00248 11.1326 5.68036C13.1184 7.35825 13.487 10.2779 11.9807 12.3967L16.7432 17.16L15.5648 18.3384L15.564 18.3392ZM7.90399 6.16667C6.32374 6.16632 4.9604 7.27558 4.63938 8.82288C4.31837 10.3702 5.12791 11.9302 6.57788 12.5585C8.02786 13.1869 9.71974 12.7107 10.6292 11.4184C11.5386 10.1261 11.4157 8.37278 10.3348 7.22002L10.839 7.72002L10.2707 7.15335L10.2607 7.14335C9.63714 6.516 8.78848 6.16429 7.90399 6.16667Z" fill="white"/>
</g>
</svg>
